<svg width="5" height="10" viewBox="0 0 5 10" fill="none" xmlns="http://www.w3.org/2000/svg">
<path d="M3.49287 4.9969L0.183866 1.59534C0.125603 1.53585 0.0793596 1.46508 0.0478029 1.38712C0.0162462 1.30915 0 1.22553 0 1.14108C0 1.05662 0.0162462 0.973 0.0478029 0.895035C0.0793596 0.817071 0.125603 0.746303 0.183866 0.686813C0.301763 0.567113 0.460733 0.5 0.626366 0.5C0.791998 0.5 0.950967 0.567113 1.06886 0.686813L4.81786 4.54213C4.93121 4.65918 4.99633 4.81668 4.99968 4.98187C5.00303 5.14707 4.94436 5.30723 4.83587 5.42905L1.07087 9.31111C1.01289 9.3709 0.94403 9.41835 0.868227 9.45076C0.792424 9.48317 0.711159 9.4999 0.629072 9.5C0.546985 9.5001 0.465684 9.48355 0.38981 9.45132C0.313936 9.41909 0.244975 9.37179 0.186865 9.31214C0.128755 9.25248 0.0826342 9.18164 0.0511351 9.10364C0.0196359 9.02565 0.0033754 8.94204 0.00328255 8.85758C0.00318969 8.77312 0.0192658 8.68946 0.0505934 8.6114C0.0819209 8.53333 0.127887 8.46238 0.185865 8.40259L3.49287 4.9969Z" fill="#011950"/>
</svg>
